<svg width="178" height="80" viewBox="0 0 178 80" fill="none" xmlns="http://www.w3.org/2000/svg">
<g clip-path="url(#clip0_1_694)">
<path d="M36.8977 80C36.2015 80 35.7374 79.7678 35.2732 79.5356C34.8091 79.3034 34.6931 78.7228 34.6931 78.1423H35.6213C35.6213 78.4906 35.7374 78.7228 35.9694 78.8389C36.2015 79.0711 36.4336 79.0711 36.8977 79.0711C37.2458 79.0711 37.4778 78.955 37.7099 78.8389C37.9419 78.7228 38.058 78.4906 38.058 78.2584C38.058 78.1423 38.058 78.1423 38.058 78.1423V78.0261C38.058 78.0261 38.058 77.91 37.9419 77.91C37.8259 77.91 37.9419 77.7939 37.8259 77.7939C37.7099 77.7939 37.7099 77.6778 37.7099 77.6778C37.7099 77.6778 37.5939 77.6778 37.5939 77.5617C37.4778 77.5617 37.4778 77.5617 37.3618 77.4456C37.3618 77.4456 37.2458 77.4456 37.1297 77.3295C37.0137 77.3295 37.0137 77.3295 36.8977 77.3295C36.8977 77.3295 36.7816 77.3295 36.6656 77.3295C36.2015 77.2134 35.8534 77.0973 35.6213 76.9812C35.1572 76.7489 34.8091 76.4006 34.8091 75.9362C34.8091 75.82 34.8091 75.82 34.8091 75.7039C34.8091 75.2395 35.0412 74.775 35.3893 74.4267C35.7374 74.0784 36.2015 73.9623 36.8977 73.9623C37.4778 73.9623 38.058 74.0784 38.4061 74.4267C38.7542 74.775 38.9862 75.2395 38.9862 75.7039H38.058C38.058 75.4717 37.9419 75.2395 37.7099 75.0073C37.4778 74.8912 37.2458 74.7751 36.8977 74.7751C36.5496 74.7751 36.3175 74.8912 36.2015 75.0073C35.9694 75.1234 35.8534 75.3556 35.8534 75.5878C35.8534 75.7039 35.8534 75.7039 35.8534 75.82C35.8534 75.9362 35.9694 75.9362 35.9694 76.0523C36.0855 76.1684 36.0855 76.1684 36.2015 76.1684C36.2015 76.1684 36.3175 76.2845 36.4336 76.2845C36.5496 76.2845 36.6656 76.4006 36.6656 76.4006C36.7816 76.4006 36.8977 76.4006 37.0137 76.5167C37.4778 76.6328 37.8259 76.7489 38.058 76.865C38.5221 77.0973 38.8702 77.4456 38.8702 77.91C38.8702 78.0261 38.8702 78.1423 38.8702 78.1423C38.8702 78.4906 38.7542 78.8389 38.6381 79.0711C38.5221 79.3034 38.174 79.5356 37.8259 79.6517C37.4778 79.7678 37.2458 80 36.8977 80Z" fill="#30261C"/>
<path d="M49.429 79.8839H48.5007L47.8045 75.7039L45.948 79.7678H45.716L43.8595 75.7039L43.1633 79.8839H42.2351L43.1633 74.0784H44.0916L45.832 78.0261L47.5725 74.0784H48.5007L49.429 79.8839Z" fill="#30261C"/>
<path d="M56.8549 79.8839L56.3908 78.6067H53.8381L53.374 79.8839H52.3297L54.6503 74.0784H55.5786L58.0152 79.8839C57.8992 79.8839 56.8549 79.8839 56.8549 79.8839ZM55.1145 75.3556L54.1862 77.7939H56.1587L55.1145 75.3556Z" fill="#30261C"/>
<path d="M64.6289 79.8839L62.7725 77.3295H62.0763V79.8839H61.148V74.0784H62.0763V76.4006H62.7725L64.3969 74.0784H65.5572L63.5847 76.865L65.6732 79.8839C65.7892 79.8839 64.6289 79.8839 64.6289 79.8839Z" fill="#30261C"/>
<path d="M69.0381 79.8839V74.0784H69.9663V79.8839H69.0381Z" fill="#30261C"/>
<path d="M79.3648 79.0711H82.1495V80H77.8564V79.8839L80.6411 75.1234H78.0885V74.1945H82.1495V74.3106L79.3648 79.0711Z" fill="#30261C"/>
<path d="M92.3602 74.0784C92.9404 74.0784 93.4045 74.3106 93.7526 74.6589C94.1007 75.0073 94.3327 75.4717 94.3327 76.0522C94.3327 76.6328 94.1007 77.0972 93.7526 77.4456C93.4045 77.7939 92.9404 78.0261 92.3602 78.0261H91.1999V80H90.2717V74.1945L92.3602 74.0784ZM92.2442 76.9811C92.5923 76.9811 92.8243 76.865 93.0564 76.7489C93.2885 76.5167 93.2885 76.2845 93.2885 76.0522C93.2885 75.82 93.1724 75.4717 93.0564 75.3556C92.9404 75.2395 92.5923 75.1234 92.2442 75.1234H91.0839V77.0972L92.2442 76.9811Z" fill="#30261C"/>
<path d="M97.6976 79.8839V74.0784H98.6259V79.8839H97.6976Z" fill="#30261C"/>
<path d="M103.615 78.955H106.168V79.8839H102.687V74.0784H106.052V75.0073H103.615V76.5167H105.82V77.4456H103.615V78.955Z" fill="#30261C"/>
<path d="M113.13 79.8839L111.273 77.3295H110.577V79.8839H109.649V74.0784H110.577V76.4006H111.273L112.898 74.0784H114.058L112.085 76.865L114.174 79.8839H113.13Z" fill="#30261C"/>
<path d="M121.368 79.8839L120.904 78.6067H118.351L117.887 79.8839H116.843L119.163 74.0784H120.091L122.528 79.8839C122.412 79.8839 121.368 79.8839 121.368 79.8839ZM119.627 75.3556L118.699 77.7939H120.672L119.627 75.3556Z" fill="#30261C"/>
<path d="M129.026 79.8839L127.749 77.7939H126.705V79.8839H125.777V74.0784H127.982C128.562 74.0784 129.026 74.3106 129.374 74.5428C129.722 74.8911 129.954 75.3556 129.954 75.82C129.954 76.1684 129.838 76.5167 129.606 76.865C129.374 77.2133 129.142 77.3295 128.794 77.5617L130.186 79.8839H129.026ZM126.705 75.0073V76.865H127.982C128.33 76.865 128.562 76.7489 128.794 76.6328C129.026 76.4006 129.026 76.2845 129.026 75.9361C129.026 75.5878 128.91 75.4717 128.794 75.2395C128.562 75.0073 128.33 75.0073 128.098 75.0073H126.705Z" fill="#30261C"/>
<path d="M137.38 74.0784H138.308V79.8839H137.496L134.479 75.7039V79.8839H133.551V74.0784H134.363L137.264 78.1422L137.38 74.0784Z" fill="#30261C"/>
<path d="M142.253 79.8839V74.0784H143.182V79.8839H142.253Z" fill="#30261C"/>
<path d="M14.5038 59.2163C13.4595 58.9841 11.7191 58.9841 10.6748 59.2163C10.7908 60.1452 10.7908 61.4224 10.7908 63.0479V64.9057C10.3267 65.0218 9.86259 65.1379 9.28243 65.1379C5.80152 65.1379 3.829 61.8868 3.829 58.4035C3.829 55.1524 5.80152 53.2947 8.70228 53.2947C10.9069 53.2947 12.9954 54.3397 14.0397 55.6169C14.2717 55.0363 14.2717 54.1074 14.0397 53.5269C12.8794 52.7141 10.9069 52.0175 8.58625 52.0175C2.6687 52.0175 0 55.6169 0 59.2163C0 63.9768 3.24885 66.4151 7.89007 66.4151C9.39847 66.4151 10.5588 66.0668 11.371 65.7185C12.2992 66.0668 13.4595 66.299 14.5038 66.299C14.3878 65.6024 14.3878 64.9057 14.3878 63.7446V62.9318C14.3878 61.4224 14.3878 60.1452 14.5038 59.2163Z" fill="#30261C"/>
<path d="M23.2061 55.733C19.4931 55.733 16.7084 57.939 16.7084 61.3062C16.7084 64.4412 19.145 66.5312 22.742 66.5312C26.3389 66.5312 29.2397 64.3251 29.2397 60.9579C29.2397 57.8229 26.803 55.6168 23.2061 55.733ZM24.0183 65.254C21.9298 65.254 20.1893 61.8868 20.1893 59.3324C20.1893 57.7068 20.8855 57.0102 21.9298 57.0102C24.0183 57.0102 25.7588 60.3774 25.7588 62.9318C25.6427 64.4412 24.9465 65.254 24.0183 65.254Z" fill="#30261C"/>
<path d="M34.9252 58.4035C34.9252 57.4746 34.9252 56.5458 35.0412 55.6169C33.4168 55.6169 31.5603 56.1974 30.516 56.8941L31.3282 58.868V62.3513C31.3282 63.9768 31.3282 65.254 31.2122 66.1829C32.2565 66.4151 33.9969 66.4151 35.0412 66.1829C34.9252 65.254 34.9252 63.9768 34.9252 62.3513V59.4485C35.7374 58.9841 37.7099 59.1002 38.8702 59.3324C39.1023 58.1713 38.8702 56.5458 38.4061 55.6169C36.8977 55.733 35.6213 56.8941 34.9252 58.4035Z" fill="#30261C"/>
<path d="M52.2137 66.299L49.8931 59.1002C49.0809 56.778 47.6885 55.733 45.2519 55.733C43.6274 55.733 42.3511 56.3135 41.771 57.0102C44.4397 56.8941 45.6 57.9391 46.0641 58.9841C41.4229 59.6807 39.5664 61.3063 39.5664 63.3962C39.5664 65.1379 40.8427 66.4151 43.5114 66.4151C45.3679 66.4151 46.9923 65.7185 48.0366 64.9057C48.2687 65.254 48.5007 65.6023 48.8488 65.8346C48.7328 65.8346 48.7328 65.8346 48.7328 65.8346C48.6168 65.8346 48.2687 66.1829 48.2687 66.1829L49.661 69.2018C50.5893 69.5501 52.7938 69.5501 53.7221 69.2018L49.7771 66.1829C50.3572 66.4151 51.1694 66.4151 52.2137 66.299ZM45.716 64.6735C44.2076 64.6735 43.3954 63.8607 43.3954 62.6996C43.3954 61.4224 44.3236 60.3774 46.4122 59.9129L47.6885 64.209C47.1084 64.5574 46.4122 64.6735 45.716 64.6735Z" fill="#30261C"/>
<path d="M56.7389 60.0291C56.7389 58.1713 57.8992 56.8941 59.9877 56.8941C61.3801 56.8941 62.6564 57.5908 63.3526 58.5196C63.5847 57.9391 63.5847 57.1263 63.3526 56.5458C62.6564 56.0813 61.3801 55.6169 59.9877 55.6169C55.9267 55.6169 53.258 58.0552 53.258 61.0741C53.258 64.0929 55.3465 66.4151 58.8274 66.4151C61.4961 66.4151 63.2366 64.9057 63.5847 63.2802C62.8885 63.8607 62.0763 64.0929 60.916 64.0929C58.3633 64.0929 56.7389 62.4674 56.7389 60.0291Z" fill="#30261C"/>
<path d="M71.3587 55.733C67.6457 55.733 64.861 57.939 64.861 61.3062C64.861 64.4412 67.2976 66.5312 70.8946 66.5312C74.4915 66.5312 77.3923 64.3251 77.3923 60.9579C77.3923 57.8229 74.9557 55.6168 71.3587 55.733ZM72.0549 65.254C69.9663 65.254 68.2259 61.8868 68.2259 59.3324C68.2259 57.7068 68.9221 57.0102 69.9663 57.0102C72.0549 57.0102 73.7953 60.3774 73.7953 62.9318C73.7953 64.4412 73.0992 65.254 72.0549 65.254Z" fill="#30261C"/>
<path d="M93.2885 52.0174C91.548 52.0174 90.2717 52.3658 89.3434 52.9463C88.4152 52.4819 87.2549 52.2497 86.0946 52.1336C86.2106 53.0624 86.2106 53.9913 86.2106 55.3846V62.4674C86.2106 64.0929 86.2106 65.3701 86.0946 66.299C87.1388 66.5312 88.8793 66.5312 89.9236 66.299C89.8076 65.3701 89.8076 64.209 89.8076 62.5835C90.2717 62.6996 90.8518 62.6996 91.548 62.6996C96.4213 62.6996 99.4381 60.4935 99.4381 57.0102C99.4381 54.1074 97.2335 51.9013 93.2885 52.0174ZM91.548 61.4224C90.8518 61.4224 90.2717 61.3063 89.8076 61.1902V53.7591C90.3877 53.5269 90.9679 53.4108 91.664 53.4108C94.1007 53.4108 95.6091 55.1524 95.6091 57.4746C95.6091 59.7968 93.9846 61.4224 91.548 61.4224Z" fill="#30261C"/>
<path d="M107.096 55.733C103.383 55.733 100.598 57.939 100.598 61.3062C100.598 64.4412 103.035 66.5312 106.632 66.5312C110.229 66.5312 113.13 64.3251 113.13 60.9579C113.246 57.8229 110.809 55.6168 107.096 55.733ZM107.908 65.254C105.82 65.254 104.079 61.8868 104.079 59.3324C104.079 57.7068 104.775 57.0102 105.82 57.0102C107.908 57.0102 109.649 60.3774 109.649 62.9318C109.649 64.4412 108.953 65.254 107.908 65.254Z" fill="#30261C"/>
<path d="M119.047 52.0175C117.423 52.0175 115.566 52.598 114.522 53.2947L115.334 55.2685V62.5835C115.334 64.209 115.334 65.4863 115.218 66.4151C116.262 66.6474 118.003 66.6474 119.047 66.4151C118.931 65.4863 118.931 64.209 118.931 62.5835V55.3847C118.931 53.9913 118.931 52.9463 119.047 52.0175Z" fill="#30261C"/>
<path d="M127.053 55.733C123.456 55.733 121.136 58.2874 121.136 61.4224C121.136 64.3252 123.34 66.5312 126.821 66.5312C129.722 66.5312 131.462 65.1379 132.159 63.3963C131.346 63.8607 130.418 64.0929 129.026 64.0929C126.705 64.0929 125.197 63.0479 124.501 61.1902H132.391C132.507 57.7069 130.302 55.6169 127.053 55.733ZM124.385 60.0291C124.385 59.7969 124.385 59.5646 124.385 59.2163C124.385 57.7069 125.197 56.8941 126.473 56.8941C127.866 56.8941 128.91 58.1713 129.026 60.0291H124.385Z" fill="#30261C"/>
<path d="M137.264 60.0291C137.264 58.1713 138.424 56.8941 140.513 56.8941C141.905 56.8941 143.182 57.5908 143.878 58.5196C144.11 57.9391 144.11 57.1263 143.878 56.5458C143.182 56.0813 141.905 55.6169 140.513 55.6169C136.452 55.6169 133.783 58.0552 133.783 61.0741C133.783 64.0929 135.872 66.4151 139.353 66.4151C142.021 66.4151 143.762 64.9057 144.11 63.2802C143.414 63.8607 142.601 64.0929 141.441 64.0929C139.004 64.0929 137.264 62.4674 137.264 60.0291Z" fill="#30261C"/>
<path d="M150.607 55.733C148.983 55.733 147.707 56.3135 147.127 57.0102C149.795 56.8941 150.956 57.9391 151.42 58.9841C146.778 59.6807 144.922 61.3063 144.922 63.3962C144.922 65.1379 146.198 66.4151 148.867 66.4151C150.724 66.4151 152.348 65.7185 153.392 64.9057C154.088 66.1829 155.597 66.5312 157.685 66.1829L155.249 58.9841C154.436 56.778 153.044 55.733 150.607 55.733ZM151.072 64.6735C149.447 64.6735 148.751 63.8607 148.751 62.6996C148.751 61.4224 149.679 60.3774 151.768 59.9129L153.044 64.209C152.58 64.5574 151.884 64.6735 151.072 64.6735Z" fill="#30261C"/>
<path d="M177.759 62.4674V59.6807C177.759 57.3585 176.598 55.6169 174.046 55.6169C172.421 55.6169 170.913 56.4297 169.869 57.3585C169.288 56.3135 168.36 55.6169 166.736 55.6169C165.111 55.6169 163.719 56.3135 162.907 57.2424C162.907 56.6619 163.023 56.1974 163.023 55.733C161.398 55.733 159.542 56.3135 158.498 57.0102L159.31 58.9841V62.4674C159.31 64.0929 159.31 65.3701 159.194 66.299C160.238 66.5312 161.978 66.5312 163.023 66.299C162.907 65.3701 162.907 64.0929 162.907 62.4674V58.2874C163.487 58.0552 164.067 57.823 164.763 57.823C166.272 57.823 166.736 58.5196 166.736 60.2613V62.4674C166.736 64.0929 166.736 65.3701 166.62 66.299C167.664 66.5312 169.404 66.5312 170.449 66.299C170.333 65.3701 170.333 64.0929 170.333 62.4674V59.6807C170.333 59.2163 170.333 58.7519 170.217 58.2874C170.797 57.9391 171.493 57.823 172.189 57.823C173.698 57.823 174.162 58.5196 174.162 60.2613V62.4674C174.162 64.0929 174.162 65.3701 174.046 66.299C175.09 66.5312 176.83 66.5312 177.875 66.299C177.759 65.3701 177.759 64.0929 177.759 62.4674Z" fill="#30261C"/>
<path d="M82.0335 32.2787C83.1938 33.0915 84.5862 33.672 85.9785 33.9042C87.2549 34.1365 88.4152 34.1365 89.6915 33.9042C91.664 33.4398 93.5205 32.2787 94.7969 30.8854C95.493 30.1887 95.9572 29.3759 96.3053 28.4471C96.4213 28.0987 96.1892 27.5182 95.7251 27.5182C95.261 27.4021 94.9129 27.6343 94.7969 28.0987V28.2148C94.6808 28.3309 94.9129 28.0987 94.7969 28.2148C94.7969 28.3309 94.6808 28.3309 94.6808 28.4471C94.5648 28.5632 94.5648 28.7954 94.4488 28.9115C94.3327 29.0276 94.2167 29.2598 94.1007 29.3759C93.9846 29.492 93.9846 29.492 93.9846 29.6082C93.8686 29.7243 94.1007 29.492 93.9846 29.6082L93.8686 29.7243C93.6366 30.0726 93.2885 30.3048 92.9404 30.6532C92.8243 30.7693 92.5923 30.8854 92.4763 31.1176H92.3602C92.2442 31.1176 92.4763 31.0015 92.4763 31.1176L92.3602 31.2337C92.2442 31.3498 92.1282 31.3498 92.1282 31.4659C91.7801 31.6981 91.316 31.9304 90.8518 32.1626C90.8518 32.1626 90.7358 32.1626 90.7358 32.2787C90.5037 32.3948 90.6198 32.2787 90.7358 32.2787C90.6198 32.2787 90.5037 32.3948 90.3877 32.3948C90.1556 32.5109 89.9236 32.5109 89.6915 32.627C89.4595 32.7431 89.2274 32.7431 88.9953 32.7431C88.8793 32.7431 88.8793 32.7431 88.7633 32.7431C88.6473 32.7431 88.8793 32.7431 88.8793 32.7431H88.7633C88.6473 32.7431 88.5312 32.7431 88.2992 32.7431C88.0671 32.7431 87.719 32.7431 87.4869 32.7431C87.3709 32.7431 87.2549 32.7431 87.0228 32.7431C86.9068 32.7431 86.9068 32.7431 86.7908 32.7431H86.6747C86.5587 32.7431 86.7908 32.7431 86.6747 32.7431C85.9785 32.627 85.3984 32.5109 84.7022 32.2787C84.5862 32.2787 84.5862 32.1626 84.4702 32.1626C84.3541 32.1626 84.5862 32.1626 84.4702 32.1626C84.3541 32.1626 84.3541 32.1626 84.3541 32.0465C84.1221 31.9304 84.006 31.9304 83.89 31.8143C83.5419 31.582 83.1938 31.4659 82.8457 31.2337C82.4976 31.0015 81.9175 31.1176 81.8015 31.4659C81.5694 31.582 81.6854 32.0465 82.0335 32.2787Z" fill="#30261C"/>
<path d="M82.4976 23.6865C83.774 24.9637 85.9785 24.8476 87.2549 23.6865C87.603 23.3382 87.9511 22.8737 88.0671 22.4093C88.1831 22.0609 87.9511 21.5965 87.4869 21.4804C87.0228 21.3643 86.6747 21.5965 86.5587 22.0609V22.1771C86.5587 22.2932 86.6747 21.9448 86.5587 22.1771C86.5587 22.2932 86.4427 22.2932 86.4427 22.4093C86.3266 22.5254 86.5587 22.2932 86.4427 22.4093L86.3266 22.5254C86.2106 22.5254 86.2106 22.6415 86.0946 22.6415C86.2106 22.5254 86.2106 22.6415 86.0946 22.6415C86.0946 22.6415 85.9785 22.6415 85.9785 22.7576C85.8625 22.7576 85.7465 22.8737 85.7465 22.8737C85.6305 22.8737 85.9785 22.8737 85.7465 22.8737H85.6305C85.5144 22.8737 85.3984 22.8737 85.2824 22.9898H85.1663C85.2824 22.9898 85.3984 22.9898 85.1663 22.9898C85.0503 22.9898 84.9343 22.9898 84.9343 22.9898C84.8182 22.9898 84.7022 22.9898 84.5862 22.9898C84.7022 22.9898 84.8182 22.9898 84.5862 22.9898H84.4702C84.3541 22.9898 84.2381 22.9898 84.2381 22.8737C84.1221 22.8737 84.4702 22.9898 84.2381 22.8737C84.2381 22.8737 84.1221 22.8737 84.1221 22.7576C84.006 22.7576 83.89 22.6415 83.89 22.6415C84.006 22.6415 84.1221 22.7576 83.89 22.6415L83.774 22.5254C83.5419 22.2932 82.9618 22.1771 82.7297 22.5254C82.4976 22.8737 82.1495 23.3382 82.4976 23.6865Z" fill="#30261C"/>
<path d="M91.0839 23.8026C91.7801 24.3832 92.5923 24.6154 93.5205 24.4993C94.4488 24.3832 95.1449 24.0349 95.8411 23.4543C96.1892 23.106 96.4213 22.6415 96.5373 22.1771C96.6533 21.8288 96.4213 21.3643 95.9572 21.2482C95.493 21.1321 95.145 21.3643 95.0289 21.8288V21.9449C94.9129 22.1771 95.0289 22.061 95.0289 21.9449C95.0289 22.061 94.9129 22.061 94.9129 22.1771L94.7969 22.2932C94.6808 22.4093 94.9129 22.1771 94.7969 22.2932C94.6808 22.4093 94.6808 22.4093 94.5648 22.5254L94.4488 22.6415C94.3327 22.7577 94.5648 22.5254 94.4488 22.6415C94.3327 22.6415 94.3327 22.7577 94.2167 22.7577C94.2167 22.7577 94.1007 22.7577 94.1007 22.8738C93.8686 22.8738 93.9846 22.8738 94.1007 22.8738C93.9846 22.8738 93.8686 22.9899 93.8686 22.9899C93.8686 22.9899 93.6366 22.9899 93.5205 23.106C93.2885 23.106 93.4045 23.106 93.5205 23.106C93.4045 23.106 93.4045 23.106 93.4045 23.106C93.2885 23.106 93.1724 23.106 93.1724 23.106C93.0564 23.106 93.0564 23.106 93.0564 23.106C92.8243 23.106 93.1724 23.106 93.0564 23.106C92.8243 23.106 92.7083 22.9899 92.4762 22.9899C92.5923 22.9899 92.7083 23.106 92.4762 22.9899H92.3602C92.3602 22.9899 92.2442 22.9899 92.2442 22.8738C92.0121 22.7577 92.3602 22.9899 92.2442 22.8738C92.1282 22.7577 91.8961 22.6415 91.664 22.6415C91.432 22.6415 91.1999 22.7577 91.0839 22.8738C90.8518 22.9899 90.7358 23.5704 91.0839 23.8026Z" fill="#30261C"/>
<path d="M75.7679 41.1031C79.2488 41.1031 82.6137 41.1031 86.0946 41.1031C89.5755 41.1031 92.9404 41.2192 96.4213 41.2192C98.3938 41.2192 100.25 41.3353 102.223 41.3353C102.687 41.3353 102.919 40.9869 103.035 40.5225C103.383 36.807 103.615 33.2076 103.963 29.492C104.079 27.8665 104.195 26.3571 104.311 24.7315C104.427 24.0348 104.427 23.4543 104.427 22.7576C104.543 21.8288 104.543 20.8999 103.963 20.0871C103.499 19.3904 102.803 18.926 101.991 18.8099C101.295 18.6938 100.366 18.6938 99.7862 19.2743C99.09 19.8549 99.206 21.016 99.7862 21.5965C100.366 22.1771 101.295 22.4093 102.107 22.4093C103.731 22.2932 105.356 21.5965 106.632 20.5515C107.908 19.5065 108.837 18.1132 109.417 16.6038C109.997 15.0944 110.229 13.4688 109.881 11.8433C109.533 10.2177 109.069 9.05662 107.908 8.01163C105.704 5.80553 102.339 4.76054 99.322 5.4572C97.6976 5.80553 95.9572 6.73441 95.145 8.35996C94.9129 8.8244 94.7969 9.28884 94.7969 9.75328C94.7969 10.3338 95.0289 11.1466 95.6091 11.2627C96.6533 11.4949 97.4656 10.9144 98.0457 10.2177C99.206 8.70829 98.8579 6.73441 98.0457 5.22498C97.2335 3.71554 95.7251 2.43833 94.1007 1.50945C90.9679 -0.116096 87.1389 -0.348316 83.89 0.812787C82.3816 1.27723 80.8732 2.20611 79.5969 3.48332C78.2045 4.87665 77.1602 6.85052 77.8564 8.8244C78.2045 9.75328 78.7847 10.4499 79.5969 10.9144C80.177 11.1466 80.9892 11.3788 81.5694 11.3788C82.1495 11.3788 83.0778 11.1466 83.3099 10.3338C83.5419 9.75328 83.1938 9.05662 82.7297 8.59218C82.2656 8.12774 81.8015 7.7794 81.2213 7.54718C80.5251 7.19885 79.7129 6.96663 78.9007 6.73441C77.0442 6.26997 75.0717 6.15386 73.0992 6.50219C71.1267 6.85052 69.6183 7.66329 68.3419 9.28884C66.7175 11.3788 66.2534 14.1655 66.6015 16.7199C66.8335 19.0421 67.7618 21.4804 69.7343 22.9899C71.2427 24.151 73.0992 24.8476 74.9557 24.7315C76.348 24.7315 77.9725 24.2671 78.6686 22.8737C79.0167 22.061 78.9007 20.8999 78.2045 20.3193C77.5083 19.7388 76.232 19.8549 75.5358 20.4354C74.9557 21.016 74.8396 22.061 74.8396 22.7576C74.8396 26.7054 75.0717 30.6531 75.3038 34.6009C75.4198 36.4586 75.5358 38.3164 75.6518 40.1742C75.6518 40.5225 75.9999 40.9869 76.4641 40.9869C76.8121 40.9869 77.2763 40.6386 77.2763 40.1742C77.0442 37.7359 76.9282 35.2975 76.8121 32.7431C76.6961 30.1887 76.5801 27.6343 76.4641 25.0798C76.4641 24.4993 76.4641 23.9187 76.4641 23.3382C76.4641 23.106 76.4641 22.7576 76.4641 22.4093C76.4641 22.2932 76.4641 22.1771 76.4641 21.9449C76.4641 21.9449 76.4641 21.8288 76.4641 21.7126C76.4641 21.5965 76.4641 21.8288 76.4641 21.7126V21.5965C76.4641 21.4804 76.4641 21.3643 76.5801 21.3643C76.4641 21.4804 76.6961 21.3643 76.6961 21.3643H76.8121C76.8121 21.3643 77.0442 21.3643 76.9282 21.3643H77.0442C77.1602 21.3643 76.9282 21.3643 76.9282 21.3643H77.0442C77.0442 21.3643 77.2763 21.4804 77.1602 21.3643C77.0442 21.2482 77.2763 21.3643 77.2763 21.3643C77.2763 21.3643 77.1602 21.2482 77.1602 21.3643C77.1602 21.3643 77.1602 21.3643 77.2763 21.4804C77.1602 21.4804 77.3923 21.4804 77.2763 21.4804C77.2763 21.4804 77.2763 21.4804 77.2763 21.5965C77.2763 21.4804 77.2763 21.7126 77.2763 21.5965V21.7126C77.2763 21.8288 77.2763 21.8288 77.3923 21.9449C77.3923 21.9449 77.3923 21.7126 77.3923 21.8287V21.9449V22.061C77.3923 22.1771 77.3923 21.8288 77.3923 21.9449C77.3923 22.061 77.3923 22.061 77.2763 22.1771C77.2763 22.2932 77.3923 22.061 77.2763 22.061C77.2763 22.061 77.2763 22.1771 77.1602 22.1771C77.1602 22.2932 77.0442 22.2932 77.0442 22.4093L77.1602 22.2932C77.1602 22.2932 77.0442 22.2932 77.0442 22.4093C76.9282 22.4093 76.9282 22.5254 76.8121 22.5254C76.8121 22.5254 77.0442 22.4093 76.9282 22.4093C76.9282 22.4093 76.9282 22.4093 76.8121 22.4093C76.8121 22.4093 76.6961 22.4093 76.6961 22.5254C76.5801 22.5254 76.5801 22.6415 76.4641 22.6415H76.348C76.348 22.6415 76.348 22.6415 76.232 22.6415C76.116 22.6415 76.4641 22.5254 76.348 22.6415C76.116 22.7576 75.9999 22.7576 75.7679 22.8737C75.6518 22.8737 75.5358 22.8737 75.4198 22.9899C75.3037 22.9899 75.3038 22.9899 75.3038 22.9899C75.1877 22.9899 75.4198 22.9899 75.4198 22.9899H75.3038C74.8396 22.9899 74.3755 22.9899 73.9114 22.9899H73.7954C73.6793 22.9899 74.0274 22.9899 73.9114 22.9899C73.9114 22.9899 73.7954 22.9899 73.6793 22.9899C73.5633 22.9899 73.4473 22.9899 73.3312 22.8737C73.0992 22.8737 72.7511 22.7576 72.519 22.6415C72.403 22.6415 72.287 22.5254 72.1709 22.5254C72.0549 22.5254 72.403 22.6415 72.287 22.5254C72.287 22.5254 72.287 22.5254 72.1709 22.5254C72.0549 22.5254 72.0549 22.5254 71.9389 22.4093C71.7068 22.2932 71.4747 22.1771 71.2427 21.9449C71.1267 21.8288 71.0106 21.8288 70.8946 21.7126C70.8946 21.7126 70.8946 21.7126 70.7786 21.7126C70.6625 21.5965 70.8946 21.8288 70.7786 21.7126C70.7786 21.7126 70.6625 21.5965 70.5465 21.5965C70.3144 21.3643 70.0824 21.1321 69.8503 21.016C69.7343 20.8999 69.6183 20.7838 69.5022 20.6676C69.5022 20.6676 69.5022 20.6676 69.3862 20.5515C69.3862 20.4354 69.2702 20.4354 69.2702 20.3193C69.0381 20.0871 68.9221 19.7388 68.806 19.3904C68.806 19.2743 68.69 19.2743 68.69 19.1582V19.0421C68.69 18.926 68.69 19.0421 68.69 19.1582C68.69 19.0421 68.574 18.8099 68.458 18.6938C68.3419 18.3454 68.2259 17.9971 68.1099 17.5327C68.1099 17.3004 67.9938 17.0682 67.9938 16.9521C67.9938 16.9521 67.9938 16.9521 67.9938 16.836C67.9938 16.7199 67.9938 16.9521 67.9938 16.9521C67.9938 16.836 67.9938 16.836 67.9938 16.836C67.9938 16.7199 67.9938 16.6038 67.9938 16.4877C67.9938 16.0232 67.9938 15.5588 67.9938 15.0944C67.9938 14.6299 67.9938 14.1655 68.1099 13.8171C68.1099 13.701 68.1099 13.701 68.1099 13.8171V13.701C68.1099 13.5849 68.1099 13.4688 68.1099 13.3527C68.1099 13.1205 68.2259 13.0044 68.2259 12.7721C68.3419 12.4238 68.458 12.0755 68.574 11.7272V11.611C68.574 11.4949 68.69 11.4949 68.69 11.3788C68.806 11.2627 68.806 11.1466 68.9221 10.9144C69.0381 10.6822 69.0381 10.6822 69.1541 10.4499C69.1541 10.3338 69.2702 10.3338 69.2702 10.2177V10.1016C69.2702 9.9855 69.2702 10.2177 69.2702 10.2177C69.5022 9.9855 69.6183 9.75328 69.8503 9.52106C69.9663 9.40495 70.0824 9.28884 70.1984 9.28884C70.1984 9.28884 70.4305 9.17273 70.3144 9.17273L70.4305 9.05662C70.6625 8.8244 70.8946 8.70829 71.1267 8.59218C71.2427 8.47607 71.3587 8.47607 71.4747 8.35996C71.4747 8.35996 71.5908 8.24385 71.7068 8.24385C71.5908 8.24385 71.8228 8.12774 71.7068 8.24385H71.8228C72.0549 8.12774 72.403 8.01163 72.635 8.01163C72.8671 8.01163 73.2152 7.89551 73.4473 7.7794C73.5633 7.7794 73.6793 7.7794 73.9114 7.66329C73.9114 7.66329 73.6793 7.66329 73.7954 7.66329H73.9114C74.0274 7.66329 74.0274 7.66329 74.1434 7.66329C74.7236 7.54718 75.3038 7.54718 75.8839 7.66329C76.116 7.66329 76.4641 7.66329 76.6961 7.7794C76.8121 7.7794 76.8121 7.7794 76.9282 7.7794H77.0442C77.0442 7.7794 76.8121 7.7794 76.9282 7.7794H77.0442C77.1602 7.7794 77.2763 7.77941 77.5083 7.89552C77.9725 8.01163 78.5526 8.12774 79.0167 8.24385C79.2488 8.35996 79.4808 8.35996 79.7129 8.47607C79.8289 8.47607 79.945 8.59218 80.061 8.59218C80.177 8.59218 80.177 8.59218 80.177 8.70829C80.2931 8.70829 79.945 8.59218 80.061 8.70829H80.177C80.5251 8.8244 80.8732 9.05662 81.2213 9.28884C81.2213 9.28884 81.3373 9.28884 81.3373 9.40495C81.4534 9.52106 81.2213 9.40495 81.2213 9.28884C81.3373 9.28884 81.3373 9.40495 81.4534 9.40495L81.5694 9.52106C81.5694 9.52106 81.5694 9.52106 81.6854 9.63717C81.8015 9.75328 81.5694 9.40495 81.5694 9.52106C81.6854 9.63717 81.6854 9.63717 81.6854 9.75328C81.6854 9.63717 81.8015 9.86939 81.6854 9.75328V9.86939C81.6854 9.86939 81.6854 9.63717 81.6854 9.75328C81.6854 9.86939 81.6854 9.52106 81.6854 9.63717C81.6854 9.75328 81.8015 9.40495 81.6854 9.52106C81.5694 9.63717 81.8015 9.40495 81.6854 9.40495C81.5694 9.52106 81.6854 9.40495 81.8015 9.40495H81.6854C81.5694 9.52106 81.6854 9.40495 81.8015 9.40495H81.6854H81.5694C81.4534 9.40495 81.5694 9.40495 81.6854 9.40495C81.5694 9.40495 81.4534 9.40495 81.4534 9.40495C81.2213 9.40495 81.1053 9.40495 80.8732 9.40495C80.9892 9.40495 80.9892 9.40495 80.8732 9.40495H80.7572C80.6411 9.40495 80.5251 9.40495 80.5251 9.28884C80.4091 9.28884 80.4091 9.28884 80.2931 9.17273H80.177C80.061 9.05662 80.2931 9.28884 80.177 9.17273C80.061 9.17273 79.945 9.05662 79.8289 9.05662L79.7129 8.94051L79.5969 8.8244L79.4808 8.70829C79.4808 8.70829 79.4808 8.70829 79.3648 8.59218C79.2488 8.47607 79.2488 8.35996 79.1327 8.24385L79.0167 8.12774C78.9007 8.01163 79.0167 8.24385 79.0167 8.12774C79.0167 8.01163 78.9007 7.89551 78.9007 7.7794C78.9007 7.66329 78.9007 7.66329 78.9007 7.54718V7.43107C78.9007 7.31496 78.9007 7.54718 78.9007 7.54718V7.31496C78.9007 7.19885 78.9007 7.19885 78.9007 7.08274C78.9007 6.96663 78.9007 6.85052 78.9007 6.73441C78.9007 6.96663 78.9007 6.73441 78.9007 6.6183C78.9007 6.50219 78.9007 6.50219 78.9007 6.38608C78.9007 6.26997 79.0167 6.15386 79.0167 5.92164V5.80553C79.0167 5.80553 79.0167 5.68942 79.1327 5.68942C79.2488 5.4572 79.3648 5.22498 79.5969 4.87665C79.5969 4.76054 79.7129 4.76054 79.7129 4.76054C79.5969 4.87665 79.7129 4.64443 79.8289 4.64443C79.945 4.52832 80.061 4.41221 80.061 4.2961C80.2931 4.06387 80.4091 3.94776 80.6411 3.71554C81.1053 4.06387 81.2213 3.94776 81.2213 3.94776L81.3373 3.83165C81.3373 3.83165 81.5694 3.71554 81.4534 3.83165C81.6854 3.71554 81.9175 3.48332 82.1495 3.36721C82.6137 3.13499 83.0778 2.78666 83.5419 2.55444C83.6579 2.55444 83.6579 2.55444 83.774 2.43833H83.89C84.006 2.43833 84.1221 2.32222 84.2381 2.32222C84.4701 2.20611 84.7022 2.20611 85.0503 2.09C85.5144 1.97389 86.0946 1.85778 86.5587 1.74167C86.6747 1.74167 86.6747 1.74167 86.7908 1.74167C86.9068 1.74167 86.7908 1.74167 86.6747 1.74167H86.7908C86.9068 1.74167 87.0228 1.74167 87.1388 1.74167C87.3709 1.74167 87.719 1.74167 87.9511 1.74167C88.5312 1.74167 88.9953 1.74167 89.5755 1.74167C89.6915 1.74167 89.6915 1.74167 89.8076 1.74167C89.8076 1.74167 90.0396 1.74167 89.9236 1.74167C89.8076 1.74167 90.0396 1.74167 90.0396 1.74167C90.1556 1.74167 90.1556 1.74167 90.2717 1.74167C90.5037 1.74167 90.7358 1.85778 91.0839 1.85778C91.548 1.97389 92.1282 2.09 92.5923 2.32222C92.7083 2.32222 92.7083 2.32222 92.8243 2.43833C92.8243 2.43833 93.0564 2.55444 92.9404 2.43833C92.8243 2.32222 93.0564 2.43833 93.0564 2.43833C93.1724 2.43833 93.1724 2.55444 93.2885 2.55444C93.5205 2.67055 93.7526 2.78666 93.9846 2.90277C94.2167 3.01888 94.4488 3.13499 94.6808 3.36721C94.5648 3.48332 94.6808 3.48332 94.7969 3.59943C94.7969 3.59943 95.0289 3.71554 94.9129 3.59943C95.0289 3.59943 95.0289 3.71554 95.145 3.71554C95.6091 4.06387 95.9572 4.41221 96.3053 4.87665L96.4213 4.99276C96.4213 4.99276 96.4213 5.10887 96.5373 5.10887C96.6533 5.22498 96.6533 5.34109 96.7694 5.4572C96.8854 5.68942 97.0014 5.92164 97.1175 6.15386C97.1175 6.15386 97.2335 6.38608 97.1175 6.26997C97.0014 6.15386 97.1175 6.38608 97.1175 6.38608C97.1175 6.50219 97.2335 6.6183 97.2335 6.73441C97.2335 6.85052 97.3495 6.96663 97.3495 7.08274C97.3495 7.19885 97.3495 7.19885 97.3495 7.31496V7.43107C97.3495 7.31496 97.3495 7.54718 97.3495 7.43107C97.3495 7.66329 97.3495 7.89551 97.3495 8.12774C97.3495 8.24385 97.3495 8.01163 97.3495 8.01163V8.12774C97.3495 8.24385 97.3495 8.24385 97.3495 8.35996C97.3495 8.47607 97.2335 8.59218 97.2335 8.70829C97.2335 8.70829 97.1175 8.94051 97.2335 8.8244C97.3495 8.70829 97.2335 8.94051 97.1175 8.94051C97.1175 9.05662 97.0014 9.17273 97.0014 9.17273L96.8854 9.28884C96.8854 9.28884 96.8854 9.40495 96.7694 9.40495C96.6533 9.52106 96.6533 9.52106 96.5373 9.63717C96.4213 9.75328 96.6534 9.52106 96.6534 9.63717H96.5373L96.4213 9.75328C96.4213 9.75328 96.4213 9.75328 96.3053 9.75328C96.1892 9.75328 96.4213 9.75328 96.4213 9.75328H96.3053C96.3053 9.75328 96.3053 9.75328 96.1892 9.75328C96.0732 9.75328 96.0732 9.75328 95.9572 9.75328C95.8411 9.75328 96.0732 9.75328 96.0732 9.75328H95.9572L96.4213 10.1016C96.4213 9.9855 96.4213 9.9855 96.4213 9.9855V9.86939C96.4213 9.75328 96.4213 9.9855 96.4213 9.9855C96.4213 9.9855 96.4213 9.86939 96.4213 9.75328C96.4213 9.63717 96.4213 9.63717 96.4213 9.63717C96.4213 9.52106 96.4213 9.75328 96.4213 9.75328V9.63717C96.4213 9.52106 96.5373 9.40495 96.5373 9.28884C96.4213 9.40495 96.5373 9.17273 96.5373 9.28884C96.5373 9.17273 96.6534 9.17273 96.6534 9.17273C96.7694 9.05662 96.7694 8.94051 96.8854 8.8244C96.7694 8.94051 97.0014 8.70829 96.8854 8.8244L97.0014 8.70829C97.1175 8.59218 97.2335 8.47607 97.2335 8.35996C97.3495 8.01163 97.4656 7.89552 97.4656 7.89552C97.4656 7.89552 97.4656 7.89551 97.5816 7.7794C97.6976 7.7794 97.6976 7.66329 97.8137 7.66329C98.0457 7.54718 98.2778 7.43107 98.5098 7.31496C98.5098 7.31496 98.6259 7.31496 98.6259 7.19885C98.7419 7.19885 98.5098 7.19885 98.5098 7.19885C98.5098 7.19885 98.5098 7.19885 98.6259 7.19885C98.7419 7.19885 98.8579 7.08274 98.974 7.08274C99.09 7.08274 99.322 6.96663 99.4381 6.96663C99.5541 6.96663 99.9022 6.85052 100.134 6.85052H100.25C100.366 6.85052 100.482 6.85052 100.598 6.85052C101.062 6.85052 101.527 6.85052 101.875 6.85052H102.107C102.223 6.85052 102.339 6.85052 102.455 6.96663C102.687 6.96663 102.919 7.08274 103.151 7.08274C103.383 7.08274 103.615 7.19885 103.731 7.31496C103.847 7.31496 103.963 7.43107 104.079 7.43107C104.079 7.43107 104.195 7.43107 104.195 7.54718C104.543 7.7794 105.008 7.89551 105.356 8.12774C105.588 8.24385 105.704 8.35996 105.936 8.47607C105.82 8.35996 106.052 8.59218 105.936 8.47607L106.052 8.59218C106.168 8.70829 106.284 8.70829 106.284 8.8244C106.632 9.05662 106.864 9.40495 107.212 9.75328C107.096 9.63717 107.328 9.86939 107.212 9.75328L107.328 9.86939C107.444 9.9855 107.444 10.1016 107.56 10.1016C107.676 10.3338 107.792 10.4499 107.908 10.6822C107.908 10.7983 108.024 10.9144 108.024 10.9144C108.024 11.0305 108.024 11.0305 108.14 11.0305C108.14 11.1466 108.14 10.9144 108.14 10.9144V11.0305C108.256 11.2627 108.256 11.4949 108.372 11.7272C108.488 11.9594 108.488 12.1916 108.488 12.4238C108.488 12.5399 108.488 12.5399 108.488 12.5399V12.656C108.488 12.7721 108.488 12.5399 108.488 12.5399C108.488 12.656 108.488 12.7721 108.488 12.8883C108.488 13.3527 108.488 13.8171 108.488 14.2816V14.3977C108.488 14.5138 108.488 14.2816 108.488 14.2816V14.3977C108.488 14.5138 108.488 14.6299 108.372 14.746C108.372 14.9782 108.256 15.2105 108.256 15.4427C108.256 15.6749 108.14 15.9071 108.024 16.1393C108.024 16.1393 108.024 16.2555 107.908 16.2555V16.3716C107.908 16.3716 108.024 16.2555 107.908 16.2555C107.908 16.3716 107.792 16.4877 107.792 16.6038C107.56 17.0682 107.328 17.4166 107.096 17.881C106.98 17.9971 106.98 17.9971 106.864 18.1132C106.864 18.1132 106.864 18.1132 106.864 18.2293L106.748 18.3454C106.632 18.5777 106.4 18.6938 106.284 18.8099C106.168 18.926 105.936 19.1582 105.82 19.2743C105.704 19.3904 105.704 19.3904 105.588 19.5065L105.472 19.6227C105.124 19.8549 104.659 20.0871 104.311 20.3193C104.195 20.3193 104.079 20.4354 103.963 20.4354C104.079 20.4354 104.079 20.4354 103.963 20.4354C103.847 20.4354 103.847 20.4354 103.731 20.5515C103.499 20.6676 103.267 20.6676 103.035 20.7838C102.803 20.8999 102.571 20.8999 102.339 20.8999C102.223 20.8999 102.455 20.8999 102.455 20.8999H102.339H102.223C102.107 20.8999 101.991 20.8999 101.875 20.8999C101.759 20.8999 101.759 20.8999 101.759 20.8999C101.643 20.8999 101.875 20.8999 101.759 20.8999C101.643 20.8999 101.527 20.8999 101.411 20.7838H101.295C101.295 20.7838 101.411 20.8999 101.411 20.7838C101.411 20.7838 101.411 20.7838 101.295 20.7838C101.295 20.7838 101.179 20.7838 101.179 20.6676C101.179 20.6676 101.179 20.6676 101.062 20.6676C100.946 20.6676 101.179 20.7838 101.062 20.6676L100.946 20.5515C100.946 20.5515 100.946 20.4354 100.83 20.4354C100.83 20.3193 100.83 20.5515 100.83 20.5515V20.4354C100.83 20.4354 100.83 20.4354 100.83 20.3193C100.83 20.2032 100.83 20.4354 100.83 20.4354V20.3193C100.83 20.2032 100.83 20.4354 100.83 20.4354L100.714 20.5515H100.83C100.598 20.5515 100.714 20.5515 100.83 20.5515C100.946 20.5515 101.062 20.5515 101.062 20.5515C100.83 20.5515 100.946 20.5515 101.062 20.5515H101.179C101.295 20.5515 101.411 20.5515 101.411 20.5515C101.527 20.5515 101.295 20.5515 101.295 20.5515C101.295 20.5515 101.295 20.5515 101.411 20.5515H101.527C101.643 20.5515 101.759 20.5515 101.759 20.6676H101.875C101.875 20.6676 101.759 20.5515 101.759 20.6676C101.759 20.6676 101.759 20.6676 101.875 20.6676C101.991 20.6676 101.991 20.7838 102.107 20.7838C102.107 20.7838 101.991 20.6676 101.991 20.7838C101.991 20.7838 102.107 20.7838 102.107 20.8999L102.223 21.016C102.223 21.016 102.223 21.1321 102.339 21.1321C102.455 21.2482 102.455 21.3643 102.571 21.4804C102.571 21.5965 102.571 21.5965 102.687 21.7126V21.8287C102.687 21.9449 102.687 22.061 102.687 22.1771C102.687 22.6415 102.687 23.2221 102.571 23.6865C102.455 24.4993 102.455 25.3121 102.339 26.0087C102.107 28.0987 101.991 30.1887 101.759 32.2787C101.527 34.6009 101.411 36.807 101.179 39.1292C101.179 39.7097 101.062 40.1742 101.062 40.6386L101.875 39.8258C98.3938 39.7097 95.0289 39.5936 91.548 39.5936C88.0671 39.5936 84.7022 39.4775 81.2213 39.4775C79.2488 39.4775 77.3923 39.4775 75.4198 39.4775C75.0717 39.4775 74.6076 39.8258 74.6076 40.2903C74.6076 40.7547 75.3038 41.2192 75.7679 41.1031Z" fill="#30261C"/>
</g>
<defs>
<clipPath id="clip0_1_694">
<rect width="177.875" height="80" fill="white"/>
</clipPath>
</defs>
</svg>
